<?xml version="1.0" encoding="UTF-8" standalone="no"?>
<!-- Generator: Adobe Illustrator 15.0.1, SVG Export Plug-In . SVG Version: 6.00 Build 0)  -->

<svg
   xmlns:dc="http://purl.org/dc/elements/1.1/"
   xmlns:cc="http://creativecommons.org/ns#"
   xmlns:rdf="http://www.w3.org/1999/02/22-rdf-syntax-ns#"
   xmlns:svg="http://www.w3.org/2000/svg"
   xmlns="http://www.w3.org/2000/svg"
   xmlns:sodipodi="http://sodipodi.sourceforge.net/DTD/sodipodi-0.dtd"
   xmlns:inkscape="http://www.inkscape.org/namespaces/inkscape"
   version="1.1"
   x="0px"
   y="0px"
   width="1599"
   height="1807"
   viewBox="0 0 1599 1807"
   enable-background="new 0 0 2000 2000"
   xml:space="preserve"
   id="svg4063"
   sodipodi:docname="html5.svg"
   inkscape:version="0.92.4 5da689c313, 2019-01-14"><metadata
   id="metadata4069"><rdf:RDF><cc:Work
       rdf:about=""><dc:format>image/svg+xml</dc:format><dc:type
         rdf:resource="http://purl.org/dc/dcmitype/StillImage" /><dc:title></dc:title></cc:Work></rdf:RDF></metadata><defs
   id="defs4067" /><sodipodi:namedview
   pagecolor="#ffffff"
   bordercolor="#666666"
   borderopacity="1"
   objecttolerance="10"
   gridtolerance="10"
   guidetolerance="10"
   inkscape:pageopacity="0"
   inkscape:pageshadow="2"
   inkscape:window-width="1920"
   inkscape:window-height="1000"
   id="namedview4065"
   showgrid="false"
   inkscape:zoom="0.3337544"
   inkscape:cx="457.42292"
   inkscape:cy="1021.2071"
   inkscape:window-x="0"
   inkscape:window-y="0"
   inkscape:window-maximized="1"
   inkscape:current-layer="svg4063" />
<g
   id="Logo_artwork"
   transform="translate(0,-193)">
</g>
<g
   id="Guides_to_delete"
   transform="translate(-200,-93)">
	<g
   id="g4060">
		<polygon
   points="352.732,1718.4 208.627,101.984 1791.373,101.984 1647.093,1718.528 999.615,1898.016 "
   id="polygon4048"
   style="fill:#e34e26" />
		<polygon
   points="1000,234.108 1000,1760.716 1523.565,1615.585 1646.918,234.108 "
   id="polygon4050"
   style="fill:#ef662a" />
		<polygon
   points="1478.168,630.648 1478.773,630.648 1496.532,432.378 503.468,432.378 556.906,1031.897 1244.048,1031.897 1220.988,1289.041 999.744,1348.857 778.919,1289.128 764.155,1124.017 565.155,1124.017 593.611,1442.302 999.697,1555.086 1406.296,1442.302 1460.806,833.669 738.229,833.669 720.086,630.648 "
   id="polygon4052"
   style="fill:#ffffff" />
		<g
   id="g4058">
			<polygon
   points="1000,833.669 738.229,833.669 720.086,630.648 1000,630.648 1000,432.378 503.468,432.378 556.906,1031.897 1000,1031.897 "
   id="polygon4054"
   style="fill:#ebebeb" />
			<polygon
   points="565.155,1124.017 593.611,1442.302 999.697,1555.086 1000,1555.001 1000,1348.771 999.744,1348.857 778.919,1289.128 764.155,1124.017 "
   id="polygon4056"
   style="fill:#ebebeb" />
		</g>
	</g>
</g>
</svg>