<!-- Generated by IcoMoon.io -->
<svg version="1.1" xmlns="http://www.w3.org/2000/svg" width="1024" height="1024" viewBox="0 0 1024 1024">
<title></title>
<g id="icomoon-ignore">
</g>
<path fill="#2ca5e0" d="M385.195 889.045c-30.464 0-25.301-11.563-35.797-40.491l-89.728-295.253 690.219-409.515z"></path>
<path fill="#2ca5e0" d="M385.195 889.045c23.552 0 33.92-10.752 47.147-23.595l125.483-121.899-156.629-94.464z"></path>
<path fill="#2ca5e0" d="M401.195 649.088l379.307 280.235c43.307 23.893 74.581 11.563 85.333-40.192l154.453-727.595c15.872-63.445-24.064-92.117-65.451-73.387l-906.837 349.739c-61.867 24.832-61.568 59.392-11.264 74.795l232.747 72.533 538.624-339.755c25.387-15.36 48.768-7.125 29.611 9.899z"></path>
</svg>
